<svg width="179" height="72" viewBox="0 0 179 72" fill="none" xmlns="http://www.w3.org/2000/svg">
<path d="M179 0H0V72H179V0Z" fill="#ED1D24"/>
<path d="M151.479 16.7788V5.75841H120.795L115.749 42.5753L110.756 5.75859H99.6905L100.93 15.5826C99.6521 13.0659 95.1217 5.75859 85.152 5.75859C85.0863 5.7543 74.0717 5.75859 74.0717 5.75859L74.0293 59.4221L65.9641 5.75859L51.4724 5.75018L43.1289 61.353L43.1332 5.75823H29.2637L24.2637 36.9904L19.3935 5.75859H5.51953V66.208H16.445V37.0715L21.4147 66.2072H27.2231L32.123 37.0715V66.2072H53.1854L54.4635 56.9056H62.9435L64.2172 66.2072L84.8955 66.2199H84.9123V66.2072H84.9252H84.9381V46.5852L87.4731 46.2162L92.7212 66.2199H92.7341H103.404H103.417L103.412 66.2072H103.431H103.444L96.5573 42.7619C100.047 40.1819 103.988 33.6299 102.939 27.362V27.3579C102.952 27.4427 109.44 66.2459 109.44 66.2459L122.161 66.2072L130.853 11.4149V66.2074H151.48V55.3355H141.689V41.4719H151.48V30.4345H141.689V16.7788H151.479ZM55.7505 47.3198L58.7502 21.4766L61.8648 47.3198H55.7505ZM87.5085 35.3868C86.6678 35.7944 85.791 35.9981 84.9375 35.9981V16.554C84.9524 16.554 84.9696 16.55 84.9907 16.55C85.8463 16.5457 92.2257 16.8087 92.2257 26.1699C92.2257 31.0667 90.056 34.1521 87.5085 35.3868ZM173.493 55.3271V66.1988H153.371V5.75018H164.205V55.3271H173.493Z" fill="white"/>
</svg>
